<svg width="1418" height="1418" viewBox="0 0 1418 1418" fill="none" xmlns="http://www.w3.org/2000/svg">
<g clip-path="url(#clip0_380_268)">
<rect x="0.472656" y="0.475098" width="1417.05" height="1417.05" fill="white"/>
<g filter="url(#filter0_d_380_268)">
<path d="M167.613 454.973C160.855 385.334 218.547 327.526 288.432 333.91L596.108 362.015C650.983 367.027 694.962 410.65 700.268 465.332L760.484 1085.87C767.241 1155.51 709.549 1213.31 639.664 1206.93L331.989 1178.83C277.114 1173.81 233.135 1130.19 227.829 1075.51L167.613 454.973Z" fill="url(#paint0_linear_380_268)"/>
</g>
<g filter="url(#filter1_d_380_268)">
<path d="M1250.38 453.962C1257.14 384.323 1199.44 326.515 1129.56 332.899L821.884 361.004C767.01 366.016 723.031 409.639 717.724 464.321L657.509 1084.86C650.751 1154.49 708.443 1212.3 778.328 1205.92L1086 1177.81C1140.88 1172.8 1184.86 1129.18 1190.16 1074.5L1250.38 453.962Z" fill="url(#paint1_linear_380_268)"/>
</g>
<g filter="url(#filter2_d_380_268)">
<rect x="351.379" y="133.617" width="711.264" height="1114.86" rx="149.577" fill="url(#paint2_linear_380_268)"/>
</g>
<g filter="url(#filter3_f_380_268)">
<circle cx="709.016" cy="878.175" r="147.056" fill="#534222" fill-opacity="0.85"/>
</g>
<path d="M815.091 685.038C869.451 668.372 927.728 698.855 938.566 754.669C939.945 761.767 941.223 768.815 942.399 775.801C948.984 814.932 952.212 851.332 951.898 882.922C951.585 914.513 947.735 940.676 940.57 959.917C933.405 979.159 923.065 991.102 910.139 995.064C897.214 999.027 881.956 994.932 865.238 983.012C848.519 971.093 830.668 951.583 812.702 925.597C794.736 899.61 777.008 867.656 760.53 831.558C757.588 825.113 754.696 818.56 751.86 811.909C729.553 759.611 760.731 701.703 815.091 685.038Z" fill="url(#paint3_linear_380_268)"/>
<path d="M602.886 685.03C657.247 701.691 688.43 759.597 666.127 811.897C663.291 818.547 660.4 825.102 657.458 831.546C640.983 867.645 623.257 899.601 605.294 925.589C587.33 951.577 569.48 971.088 552.762 983.008C536.045 994.929 520.788 999.025 507.862 995.063C494.936 991.102 484.595 979.159 477.428 959.918C470.262 940.677 466.41 914.515 466.094 882.924C465.778 851.333 469.003 814.933 475.585 775.802C476.76 768.816 478.038 761.768 479.416 754.67C490.25 698.855 548.525 668.368 602.886 685.03Z" fill="url(#paint4_linear_380_268)"/>
<path d="M881.345 672.166C908.852 672.166 931.387 694.509 928.938 721.906C926.32 751.206 921.391 779.933 914.24 807.396C903.076 850.269 886.713 889.225 866.085 922.039C845.457 954.852 820.969 980.881 794.017 998.64C767.065 1016.4 738.178 1025.54 709.006 1025.54C679.834 1025.54 650.947 1016.4 623.996 998.64C597.044 980.881 572.555 954.851 551.927 922.038C531.299 889.224 514.936 850.268 503.773 807.395C496.621 779.931 491.693 751.205 489.075 721.905C486.626 694.508 509.162 672.165 536.668 672.165L709.007 672.166H881.345Z" fill="url(#paint5_linear_380_268)"/>
<mask id="mask0_380_268" style="mask-type:alpha" maskUnits="userSpaceOnUse" x="486" y="759" width="458" height="140">
<path d="M486.863 759.915L542.313 774.798C653.759 804.711 771.076 805.068 882.702 775.833L943.479 759.915V860.468L882.702 876.386C771.076 905.621 653.759 905.264 542.313 875.351L486.863 860.468V759.915Z" fill="#D9D9D9"/>
</mask>
<g mask="url(#mask0_380_268)">
<path d="M881.012 672.166C908.518 672.166 931.053 694.509 928.606 721.906C925.99 751.206 921.065 779.933 913.919 807.396C902.764 850.269 886.413 889.225 865.801 922.039C845.188 954.852 820.718 980.881 793.786 998.64C766.855 1016.4 737.99 1025.54 708.839 1025.54C679.689 1025.54 650.824 1016.4 623.893 998.64C596.961 980.881 572.491 954.851 551.878 922.038C531.266 889.224 514.915 850.268 503.76 807.395C496.614 779.931 491.69 751.205 489.073 721.905C486.626 694.507 509.162 672.165 536.668 672.165L708.84 672.166H881.012Z" fill="url(#paint6_linear_380_268)"/>
</g>
<rect x="784.309" y="392.462" width="17.4167" height="100.615" rx="8.70835" transform="rotate(15.1639 784.309 392.462)" fill="url(#paint7_linear_380_268)"/>
<rect x="604.582" y="397.016" width="17.4167" height="100.615" rx="8.70835" transform="rotate(-15.16 604.582 397.016)" fill="url(#paint8_linear_380_268)"/>
<path d="M530.57 659.297C503.064 659.297 480.21 636.725 486.33 609.909C489.096 597.787 492.882 585.891 497.663 574.35C508.818 547.418 525.169 522.948 545.781 502.335C566.394 481.723 590.864 465.372 617.796 454.217C644.727 443.062 673.592 437.32 702.743 437.32C731.893 437.32 760.758 443.062 787.689 454.217C814.621 465.373 839.091 481.723 859.704 502.336C880.316 522.948 896.667 547.419 907.822 574.35C912.602 585.892 916.389 597.788 919.155 609.909C925.275 636.726 902.421 659.297 874.914 659.297L702.742 659.297L530.57 659.297Z" fill="#FEA230"/>
<circle cx="602.282" cy="546.992" r="21.6645" fill="#313131"/>
<path d="M609.382 536.187C613.301 542.185 603.937 538.403 597.939 542.322C591.941 546.24 591.581 556.377 587.662 550.379C583.743 544.381 585.429 536.342 591.426 532.423C597.424 528.504 605.463 530.19 609.382 536.187Z" fill="#FFE4C4"/>
<circle cx="803.196" cy="549.627" r="21.6645" fill="#313131"/>
<path d="M810.347 538.822C814.266 544.82 804.902 541.038 798.904 544.957C792.906 548.875 792.546 559.012 788.627 553.014C784.708 547.016 786.393 538.977 792.391 535.058C798.389 531.139 806.428 532.825 810.347 538.822Z" fill="#FFE4C4"/>
</g>
<defs>
<filter id="filter0_d_380_268" x="-160.947" y="94.628" width="1249.99" height="1530.03" filterUnits="userSpaceOnUse" color-interpolation-filters="sRGB">
<feFlood flood-opacity="0" result="BackgroundImageFix"/>
<feColorMatrix in="SourceAlpha" type="matrix" values="0 0 0 0 0 0 0 0 0 0 0 0 0 0 0 0 0 0 127 0" result="hardAlpha"/>
<feOffset dy="89.2216"/>
<feGaussianBlur stdDeviation="164.01"/>
<feComposite in2="hardAlpha" operator="out"/>
<feColorMatrix type="matrix" values="0 0 0 0 1 0 0 0 0 0.760784 0 0 0 0 0.301961 0 0 0 0.26 0"/>
<feBlend mode="normal" in2="BackgroundImageFix" result="effect1_dropShadow_380_268"/>
<feBlend mode="normal" in="SourceGraphic" in2="effect1_dropShadow_380_268" result="shape"/>
</filter>
<filter id="filter1_d_380_268" x="328.948" y="93.6168" width="1249.99" height="1530.03" filterUnits="userSpaceOnUse" color-interpolation-filters="sRGB">
<feFlood flood-opacity="0" result="BackgroundImageFix"/>
<feColorMatrix in="SourceAlpha" type="matrix" values="0 0 0 0 0 0 0 0 0 0 0 0 0 0 0 0 0 0 127 0" result="hardAlpha"/>
<feOffset dy="89.2216"/>
<feGaussianBlur stdDeviation="164.01"/>
<feComposite in2="hardAlpha" operator="out"/>
<feColorMatrix type="matrix" values="0 0 0 0 1 0 0 0 0 0.760784 0 0 0 0 0.301961 0 0 0 0.26 0"/>
<feBlend mode="normal" in2="BackgroundImageFix" result="effect1_dropShadow_380_268"/>
<feBlend mode="normal" in="SourceGraphic" in2="effect1_dropShadow_380_268" result="shape"/>
</filter>
<filter id="filter2_d_380_268" x="23.3581" y="-105.182" width="1367.31" height="1770.9" filterUnits="userSpaceOnUse" color-interpolation-filters="sRGB">
<feFlood flood-opacity="0" result="BackgroundImageFix"/>
<feColorMatrix in="SourceAlpha" type="matrix" values="0 0 0 0 0 0 0 0 0 0 0 0 0 0 0 0 0 0 127 0" result="hardAlpha"/>
<feOffset dy="89.2216"/>
<feGaussianBlur stdDeviation="164.01"/>
<feComposite in2="hardAlpha" operator="out"/>
<feColorMatrix type="matrix" values="0 0 0 0 1 0 0 0 0 0.760784 0 0 0 0 0.301961 0 0 0 0.26 0"/>
<feBlend mode="normal" in2="BackgroundImageFix" result="effect1_dropShadow_380_268"/>
<feBlend mode="normal" in="SourceGraphic" in2="effect1_dropShadow_380_268" result="shape"/>
</filter>
<filter id="filter3_f_380_268" x="404.8" y="573.959" width="608.43" height="608.432" filterUnits="userSpaceOnUse" color-interpolation-filters="sRGB">
<feFlood flood-opacity="0" result="BackgroundImageFix"/>
<feBlend mode="normal" in="SourceGraphic" in2="BackgroundImageFix" result="shape"/>
<feGaussianBlur stdDeviation="78.5802" result="effect1_foregroundBlur_380_268"/>
</filter>
<linearGradient id="paint0_linear_380_268" x1="487.061" y1="333.87" x2="554.081" y2="1183.54" gradientUnits="userSpaceOnUse">
<stop stop-color="#4E4E4E"/>
<stop offset="0.480769" stop-color="#333334"/>
</linearGradient>
<linearGradient id="paint1_linear_380_268" x1="930.931" y1="332.858" x2="863.911" y2="1182.52" gradientUnits="userSpaceOnUse">
<stop stop-color="#4E4E4E"/>
<stop offset="0.466346" stop-color="#333334"/>
</linearGradient>
<linearGradient id="paint2_linear_380_268" x1="707.011" y1="133.617" x2="707.011" y2="1248.48" gradientUnits="userSpaceOnUse">
<stop stop-color="#FCDA93"/>
<stop offset="1" stop-color="#FEB325"/>
</linearGradient>
<linearGradient id="paint3_linear_380_268" x1="815.091" y1="685.037" x2="910.139" y2="995.064" gradientUnits="userSpaceOnUse">
<stop stop-color="#D5D5D5"/>
<stop offset="1" stop-color="#F9F9F9"/>
</linearGradient>
<linearGradient id="paint4_linear_380_268" x1="602.886" y1="685.029" x2="507.862" y2="995.063" gradientUnits="userSpaceOnUse">
<stop stop-color="#D5D5D5"/>
<stop offset="1" stop-color="#F9F9F9"/>
</linearGradient>
<linearGradient id="paint5_linear_380_268" x1="709.007" y1="672.165" x2="709.007" y2="1025.54" gradientUnits="userSpaceOnUse">
<stop stop-color="#FEA330"/>
<stop offset="1" stop-color="#CF5E14"/>
</linearGradient>
<linearGradient id="paint6_linear_380_268" x1="708.84" y1="672.165" x2="708.84" y2="1025.54" gradientUnits="userSpaceOnUse">
<stop stop-color="#6C6C6C"/>
<stop offset="1" stop-color="#121213"/>
</linearGradient>
<linearGradient id="paint7_linear_380_268" x1="793.017" y1="392.462" x2="793.017" y2="493.077" gradientUnits="userSpaceOnUse">
<stop stop-color="#4A4A4A"/>
<stop offset="1" stop-color="#353535"/>
</linearGradient>
<linearGradient id="paint8_linear_380_268" x1="613.29" y1="397.016" x2="613.29" y2="497.631" gradientUnits="userSpaceOnUse">
<stop stop-color="#4A4A4A"/>
<stop offset="1" stop-color="#353535"/>
</linearGradient>
<clipPath id="clip0_380_268">
<rect x="0.472656" y="0.475098" width="1417.05" height="1417.05" rx="294" fill="white"/>
</clipPath>
</defs>
</svg>
